<?xml version="1.0" encoding="UTF-8" standalone="no"?> <svg xmlns:dc="http://purl.org/dc/elements/1.1/" xmlns:cc="http://creativecommons.org/ns#" xmlns:rdf="http://www.w3.org/1999/02/22-rdf-syntax-ns#" xmlns:svg="http://www.w3.org/2000/svg" xmlns="http://www.w3.org/2000/svg" id="svg3785" viewBox="0 0 79.374998 21.166674" height="80" width="300" preserveAspectRatio="xMinYMin meet"><metadata id="metadata3791"></metadata><defs id="defs3789"></defs><g id="g3755"><path id="path3753" d="M22.4 8c-.3 0-.56.25-.56.56v6.9c0 .3.25.55.55.55h33.17c.3 0 .56-.24.56-.55v-6.9c0-.3-.25-.54-.56-.54zm30.46.78c.43 0 .75 0 1.23 0 .07 0 .12.06.12.13v4.4c0 .98-.47 1.84-1.83 1.84-.42 0-.7-.05-.87-.1-.14-.04-.3-.1-.25-.33l.13-.8c.06-.18.14-.22.4-.18.07.02.28.05.37.05.4-.02.54-.2.54-.66V8.96c0-.1.05-.17.16-.17zm-21.32.08c1.78 0 2.44.9 2.44 2.3v3.8c0 .13-.04.2-.18.2h-1.08c-.1 0-.16-.07-.16-.16v-.12c0-.12-.07-.15-.2-.05-.24.2-.66.4-1.24.4-1.42 0-2.3-.8-2.3-2.15 0-1.3.9-2.17 2.38-2.17.4 0 .74.1 1.07.3.1.05.2.05.2-.08v-.17c0-.56-.32-.84-1.07-.84-.4 0-1.07.17-1.46.32-.14.06-.27 0-.3-.13l-.26-.7c-.06-.14 0-.25.1-.3.64-.3 1.36-.44 2.06-.44zm16.7 0c1.78 0 2.45.9 2.45 2.3v3.8c0 .13-.06.2-.2.2h-1.08c-.1 0-.15-.07-.15-.16v-.12c0-.12-.07-.15-.2-.05-.25.2-.67.4-1.25.4-1.42 0-2.3-.8-2.3-2.15 0-1.3.9-2.17 2.38-2.17.4 0 .74.1 1.07.3.1.05.2.05.2-.08v-.17c0-.56-.32-.84-1.07-.84-.4 0-1.07.17-1.46.32-.14.06-.27 0-.3-.13l-.26-.7c-.05-.14.02-.25.1-.3.64-.3 1.36-.44 2.06-.44zm-22.08.02c.7 0 1.56.2 2.14.75.1.1.06.22 0 .33l-.46.65c-.04.06-.1.08-.15.08-.1 0-.26-.12-.44-.2-.42-.2-.8-.32-1.16-.32-.4 0-.72.2-.72.54 0 .25.2.43.65.58 1.1.35 2.58.7 2.58 2.07 0 1.2-1.04 1.87-2.36 1.87-.96 0-2-.3-2.46-1.25-.06-.1-.07-.24.05-.3l.78-.44c.17-.08.24-.07.33.06.38.46.8.68 1.35.68.38 0 .82-.2.82-.58 0-.32-.23-.48-.65-.63-.26-.1-.64-.2-1-.3-.9-.3-1.53-.8-1.53-1.72 0-1.23 1.06-1.87 2.24-1.87zm16.74 0c1.46 0 2.1.98 2.1 2.37v3.68c0 .15-.1.22-.2.22h-1.1c-.14 0-.22-.07-.22-.2v-3.67c0-.62-.32-1.07-1.08-1.07-.64 0-1.06.46-1.06 1.07v3.66c0 .15-.1.22-.24.22h-1.07c-.14 0-.22-.07-.22-.2V9.2c0-.16.1-.23.23-.23h1.1c.13 0 .18.06.18.2 0 .03 0 .22.02.22.02.1.1.07.16 0 .3-.3.93-.5 1.42-.5zm-8.12.1h4.1c.3 0 .4.12.4.3v.56c0 .13-.05.34-.15.47l-2.42 3.33c-.07.13 0 .2.13.2h2.42c.12 0 .23.07.23.22v.88c0 .14-.08.22-.22.22H34.8c-.27 0-.37-.14-.37-.32v-.4c0-.14.05-.35.14-.5l2.55-3.45c.07-.1.05-.2-.07-.2H34.8c-.14 0-.24-.05-.24-.2V9.2c0-.14.08-.23.22-.23zm-3.48 3.05c-.7 0-1.07.45-1.07 1.02 0 .57.37 1.03 1.06 1.03.72 0 1.06-.5 1.06-1.03-.02-.56-.4-1.02-1.06-1.02zm16.7 0c-.7 0-1.07.45-1.07 1.02 0 .57.38 1.03 1.06 1.03.72 0 1.06-.5 1.06-1.03-.02-.56-.4-1.02-1.06-1.02z" fill="#fff"></path></g><g id="g3767"><g id="g3765" word-spacing="0" letter-spacing="-.646" font-family="PF Handbook Pro" font-size="10.583" font-weight="normal" style="line-height:1.25;-inkscape-font-specification:'PF Handbook Pro Bold'" fill="#fff"><path id="path3757" style="-inkscape-font-specification:'PF Handbook Pro'" d="M63.47 14.9v-3.72c0-1.4-.86-2.32-2.25-2.32-.53 0-1 .15-1.4.5-.04.02-.06.04-.1.04-.06 0-.1-.04-.1-.12v-.2c0-.1-.03-.14-.13-.14h-.8c-.1 0-.14.05-.14.14v5.83c0 .1.06.14.14.14h.85c.1 0 .14-.05.14-.14v-3.72c0-.8.5-1.36 1.32-1.36.9 0 1.34.58 1.34 1.38v3.7c0 .1.02.14.12.14h.86c.1 0 .13-.05.13-.14z"></path><path id="path3759" style="-inkscape-font-specification:'PF Handbook Pro'" d="M68.95 12.77v-1.6c0-1.46-.9-2.32-2.46-2.32-1.6 0-2.45.9-2.45 2.33v1.6c0 1.5.92 2.34 2.45 2.34 1.5 0 2.45-.85 2.45-2.35zm-1.12 0c0 .82-.4 1.4-1.34 1.4-.96 0-1.34-.6-1.34-1.4v-1.6c0-.8.53-1.35 1.34-1.35.9 0 1.33.57 1.33 1.36z"></path><path id="path3761" style="-inkscape-font-specification:'PF Handbook Pro'" d="M74.2 9.13c.03-.12 0-.2-.13-.2h-.8c-.18 0-.23.13-.26.22l-.93 2.92-.44 1.5c-.02.07-.1.07-.12 0l-.45-1.58-.95-2.9c-.02-.1-.12-.16-.27-.16h-.77c-.12 0-.15.07-.1.2l2.02 5.74c.04.13.1.16.25.16h.68c.18 0 .22-.05.26-.17z"></path><path id="path3763" style="-inkscape-font-specification:'PF Handbook Pro'" d="M79.1 12.77v-1.6c0-1.46-.9-2.32-2.47-2.32-1.57 0-2.43.9-2.43 2.33v1.6c0 1.5.92 2.34 2.44 2.34 1.5 0 2.45-.85 2.45-2.35zm-1.12 0c0 .82-.42 1.4-1.35 1.4-.94 0-1.32-.6-1.32-1.4v-1.6c0-.8.54-1.35 1.34-1.35.9 0 1.34.57 1.34 1.36z"></path></g></g><g id="g3771"><path id="path3769" d="M.56.84C.26.84 0 1.1 0 1.4v14.05c0 .3.25.56.56.56h18.88c.3 0 .55-.24.55-.55v-8.5h-1.57v7.45H1.57V2.38h12.3V.84z" fill="#fff"></path></g><g id="g3775"><path id="path3773" d="M7.75 14.5v5.52h4.48v-5.5H10z" fill="#fff"></path></g><g style="fill:#ffffff" id="g3779"><path style="fill:#ffffff" id="path3777" d="M16 .84v1.54h2.44v2.44H20V.84h-1.56z" fill="#272727"></path></g><g id="g3783"><path id="path3781" d="M3.42 18.68c-.08 0-.15.02-.24.14-.22.35-.44.7-.63 1-.03.05-.05.1-.05.15v.22c0 .04.04.12.13.13H16.57c.07 0 .14-.02.24-.15.22-.34.44-.7.63-1 .02-.04.04-.1.04-.14v-.22c0-.06-.05-.14-.14-.14H10z" fill="#fff"></path></g></svg> 